<svg width="34" height="35" viewBox="0 0 34 35" fill="none" xmlns="http://www.w3.org/2000/svg">
<path d="M4.25 9.00016H7.08333M7.08333 9.00016H29.75M7.08333 9.00016V28.8335C7.08333 29.5849 7.38184 30.3056 7.9132 30.837C8.44455 31.3683 9.16522 31.6668 9.91667 31.6668H24.0833C24.8348 31.6668 25.5554 31.3683 26.0868 30.837C26.6182 30.3056 26.9167 29.5849 26.9167 28.8335V9.00016M11.3333 9.00016V6.16683C11.3333 5.41538 11.6318 4.69471 12.1632 4.16336C12.6946 3.63201 13.4152 3.3335 14.1667 3.3335H19.8333C20.5848 3.3335 21.3054 3.63201 21.8368 4.16336C22.3682 4.69471 22.6667 5.41538 22.6667 6.16683V9.00016" stroke="#D9D9D9" stroke-width="3" stroke-linecap="round" stroke-linejoin="round"/>
</svg>
