<svg width="52" height="28" viewBox="0 0 52 28" fill="none" xmlns="http://www.w3.org/2000/svg">
<path d="M34.6859 28H25.1866L31.3378 0.0558167H40.4088L34.6859 28Z" fill="#9747FF"/>
<path d="M13.083 28H1.91333L26.1675 0.0558167H32.9805L13.083 28Z" fill="#9747FF"/>
<path d="M26.6114 28H17.3538L8.271 0.0558167H15.8662L26.6114 28Z" fill="#9747FF"/>
<path fill-rule="evenodd" clip-rule="evenodd" d="M37.7717 24.3389C44.3567 24.3389 51.3096 17.1175 51.3096 10.4119C51.3096 3.70631 47.6889 -0.541929 37.7717 0.0558836C31.1867 0.0558836 30.4034 7.77063 30.4034 14.4762C30.4034 21.1818 31.1867 24.3389 37.7717 24.3389ZM38.1915 17.4838C41.4288 17.4838 44.847 13.9368 44.847 10.6431C44.847 7.34952 43.067 5.26288 38.1915 5.55651C34.9542 5.55651 34.5691 9.34582 34.5691 12.6394C34.5691 15.9331 34.9542 17.4838 38.1915 17.4838Z" fill="#9747FF"/>
</svg>
