<svg width="34" height="34" viewBox="0 0 34 34" fill="none" xmlns="http://www.w3.org/2000/svg">
<path d="M4.25 8.50016H7.08333M7.08333 8.50016H29.75M7.08333 8.50016V28.3335C7.08333 29.0849 7.38184 29.8056 7.9132 30.337C8.44455 30.8683 9.16522 31.1668 9.91667 31.1668H24.0833C24.8348 31.1668 25.5554 30.8683 26.0868 30.337C26.6182 29.8056 26.9167 29.0849 26.9167 28.3335V8.50016M11.3333 8.50016V5.66683C11.3333 4.91538 11.6318 4.19471 12.1632 3.66336C12.6946 3.13201 13.4152 2.8335 14.1667 2.8335H19.8333C20.5848 2.8335 21.3054 3.13201 21.8368 3.66336C22.3682 4.19471 22.6667 4.91538 22.6667 5.66683V8.50016" stroke="#F5F5F5" stroke-width="3" stroke-linecap="round" stroke-linejoin="round"/>
</svg>
